<svg width="256" height="256" viewBox="0 0 256 256" fill="none" xmlns="http://www.w3.org/2000/svg">
<circle cx="128" cy="128" r="128" fill="#FE5000"/>
<path d="M125.625 157.375V172H79.8125V157.375H125.625ZM85.875 81V172H67.125V81H85.875ZM205.125 129.938V161.812C204.125 163.229 202.312 164.833 199.688 166.625C197.104 168.417 193.667 169.979 189.375 171.312C185.083 172.604 179.896 173.25 173.812 173.25C168.562 173.25 163.75 172.292 159.375 170.375C155.042 168.458 151.292 165.708 148.125 162.125C144.958 158.5 142.5 154.208 140.75 149.25C139.042 144.25 138.188 138.708 138.188 132.625V119.25C138.188 113.292 139 107.917 140.625 103.125C142.292 98.2917 144.646 94.125 147.688 90.625C150.729 87.125 154.354 84.4375 158.562 82.5625C162.812 80.6875 167.521 79.75 172.688 79.75C179.354 79.75 184.958 80.9167 189.5 83.25C194.083 85.5417 197.667 88.6667 200.25 92.625C202.833 96.5833 204.417 101.042 205 106H199.938C199.312 102.167 198 98.625 196 95.375C194.042 92.0833 191.167 89.4375 187.375 87.4375C183.583 85.3958 178.688 84.375 172.688 84.375C168.146 84.375 164.062 85.2292 160.438 86.9375C156.812 88.6042 153.708 90.9792 151.125 94.0625C148.583 97.1458 146.625 100.812 145.25 105.062C143.917 109.312 143.25 114 143.25 119.125V132.625C143.25 137.958 143.958 142.833 145.375 147.25C146.833 151.625 148.896 155.417 151.562 158.625C154.271 161.833 157.5 164.312 161.25 166.062C165.042 167.771 169.229 168.625 173.812 168.625C178.646 168.625 182.854 168.146 186.438 167.188C190.062 166.229 193 165.083 195.25 163.75C197.542 162.375 199.146 161.104 200.062 159.938V134.625H173.562V129.938H205.125Z" fill="white"/>
</svg>
